# xmcd
#
# Track frame offsets:
#	150
#	13876
#	32347
#	46944
#
# Disc length: 806 seconds
#
# Revision: 1
# Processed by: cddbd v1.5.2PL0 Copyright (c) Steve Scherf et al.
# Submitted via: audiograbber 1.83.01
#
DISCID=25032404
DTITLE=Simply Stone - Blues and Rock and Ballads
DYEAR=2002
DGENRE=Blues
TTITLE0=Big-Band der Bühnenkunst - C Jam Blues
TTITLE1=Big-Band der Bühnenkunst - Get It On
TTITLE2=Big-Band der Bühnenkunst - Rainbow Connection
TTITLE3=Big-Band der Bühnenkunst - We've Only Just Begun
EXTD=Aufgenommen am 22./23. 11. 2002  im Freiherr-vom-Stein Gymnasium Leverkuse
EXTD=n. Bigband der Bühnenkunst am F-v-S Gymnasium Leverkusen. Leitung: Gerald 
EXTD=Meier. Technische Leitung: Benjamin Schwenck, Aufnahmeassistenz: Sven Band
EXTD=isch, Mike Rewig, Abel Thom
EXTT0=des F-v-S Gynasiums
EXTT1=des F-v-S Gynasiums
EXTT2=des F-v-S Gynasiums
EXTT3=des F-v-S Gynasiums
PLAYORDER=
